<?xml version="1.0" encoding="UTF-8" standalone="no"?>
<!-- Uploaded to: SVG Repo, www.svgrepo.com, Generator: SVG Repo Mixer Tools -->

<svg
   fill="#000000"
   height="800px"
   width="800px"
   version="1.1"
   id="Layer_1"
   viewBox="0 0 500 500"
   enable-background="new 0 0 500 500"
   xml:space="preserve"
   sodipodi:docname="Logout.svg"
   inkscape:version="1.3 (0e150ed6c4, 2023-07-21)"
   xmlns:inkscape="http://www.inkscape.org/namespaces/inkscape"
   xmlns:sodipodi="http://sodipodi.sourceforge.net/DTD/sodipodi-0.dtd"
   xmlns="http://www.w3.org/2000/svg"
   xmlns:svg="http://www.w3.org/2000/svg"><defs
   id="defs2" /><sodipodi:namedview
   id="namedview2"
   pagecolor="#ffffff"
   bordercolor="#000000"
   borderopacity="0.25"
   inkscape:showpageshadow="2"
   inkscape:pageopacity="0.0"
   inkscape:pagecheckerboard="0"
   inkscape:deskcolor="#d1d1d1"
   inkscape:zoom="1.48875"
   inkscape:cx="336.85978"
   inkscape:cy="254.24013"
   inkscape:window-width="2560"
   inkscape:window-height="1369"
   inkscape:window-x="-8"
   inkscape:window-y="-8"
   inkscape:window-maximized="1"
   inkscape:current-layer="Layer_1" />&#10;<g
   id="g2"
   transform="translate(-170,-120)"
   inkscape:export-filename="g2.svg"
   inkscape:export-xdpi="96"
   inkscape:export-ydpi="96">&#10;	<path
   d="m 250,224 c -4.4,0 -8,3.6 -8,8 v 24 c 0,4.4 -3.6,8 -8,8 h -40 c -4.4,0 -8,-3.6 -8,-8 V 144 c 0,-4.4 3.6,-8 8,-8 h 40 c 4.4,0 8,3.6 8,8 v 24 c 0,4.4 3.6,8 8,8 4.4,0 8,-3.6 8,-8 v -24 c 0,-13.2 -10.8,-24 -24,-24 h -40 c -13.2,0 -24,10.8 -24,24 v 112 c 0,13.2 10.8,24 24,24 h 40 c 13.2,0 24,-10.8 24,-24 v -24 c 0,-4.4 -3.6,-8 -8,-8 z"
   id="path1" />&#10;	<path
   d="m 328.4,204.8 c 0.1,-0.1 0.2,-0.2 0.3,-0.3 0,0 0,0 0,-0.1 0.1,-0.2 0.2,-0.4 0.3,-0.6 0.1,-0.3 0.3,-0.5 0.4,-0.8 0.1,-0.3 0.2,-0.5 0.3,-0.8 0.1,-0.2 0.2,-0.4 0.2,-0.7 0.2,-1 0.2,-2.1 0,-3.1 0,0 0,0 0,0 0,-0.2 -0.1,-0.4 -0.2,-0.7 -0.1,-0.3 -0.1,-0.5 -0.2,-0.8 0,0 0,0 0,0 -0.1,-0.3 -0.3,-0.5 -0.4,-0.8 -0.1,-0.2 -0.2,-0.4 -0.3,-0.6 -0.3,-0.4 -0.6,-0.9 -1,-1.2 l -32,-32 c -3.1,-3.1 -8.2,-3.1 -11.3,0 -3.1,3.1 -3.1,8.2 0,11.3 l 18.3,18.3 H 210 c -4.4,0 -8,3.6 -8,8 0,4.4 3.6,8 8,8 h 92.7 l -18.3,18.3 c -3.1,3.1 -3.1,8.2 0,11.3 1.6,1.6 3.6,2.3 5.7,2.3 2.1,0 4.1,-0.8 5.7,-2.3 l 32,-32 c 0,0 0,0 0,0 0.1,-0.1 0.3,-0.4 0.6,-0.7 z"
   id="path2" />&#10;</g>&#10;</svg>
